# xmcd CD database file
#
# Track frame offsets:
#	150
#	13313
#	25115
#	39728
#	51158
#	66425
#	80608
#	91203
#	102880
#	115178
#	126398
#	139980
#	151355
#	160425
#	175638
#	191130
#	205488
#	218510
#	230903
#	242340
#	252918
#	263475
#	273520
#	286180
#
# Disc length: 3972 seconds
#
# Revision: 0
# Processed by: cddbd v1.4PL0 Copyright (c) Steve Scherf et al.
# Submitted via: CDex 1.50beta10
#
DISCID=5f0f8218
DTITLE=Jesse Belvin - The Blues Balladeer
DYEAR=1952
DGENRE=Blues
TTITLE0=Daddy Loves Baby
TTITLE1=My Love Comes Tumbling Down
TTITLE2=Dream Girl
TTITLE3=Daddy Loves Baby
TTITLE4=Dream Girl (Alt. take)
TTITLE5=Confusin' Blues (aka Jesse's Blues)
TTITLE6=Baby Don't Go
TTITLE7=Confusin' Blues
TTITLE8=Blues Has Got Me
TTITLE9=Hang Your Tears Out to Dry (aka Dry Your Tears)
TTITLE10=Dream Girl
TTITLE11=Don't Stop (Pretty Baby)
TTITLE12=Love Me
TTITLE13=Puddin' N Tane
TTITLE14=Open Up Your Heart
TTITLE15=What's the Matter
TTITLE16=Ding Dong Baby
TTITLE17=One Little Blessing
TTITLE18=Gone
TTITLE19=Love, Love of My Life
TTITLE20=Where's My Girl
TTITLE21=Let's Try Romance
TTITLE22=Come Back
TTITLE23=Love of My Life
EXTD=YEAR: 1952
EXTT0=
EXTT1=
EXTT2=
EXTT3=
EXTT4=
EXTT5=
EXTT6=
EXTT7=
EXTT8=
EXTT9=
EXTT10=
EXTT11=
EXTT12=
EXTT13=
EXTT14=
EXTT15=
EXTT16=
EXTT17=
EXTT18=
EXTT19=
EXTT20=
EXTT21=
EXTT22=
EXTT23=
PLAYORDER=
